<?xml version="1.0" encoding="UTF-8" standalone="no"?>
<!-- Created with Inkscape (http://www.inkscape.org/) -->

<svg
   xmlns:dc="http://purl.org/dc/elements/1.1/"
   xmlns:cc="http://creativecommons.org/ns#"
   xmlns:rdf="http://www.w3.org/1999/02/22-rdf-syntax-ns#"
   xmlns:svg="http://www.w3.org/2000/svg"
   xmlns="http://www.w3.org/2000/svg"
   xmlns:sodipodi="http://sodipodi.sourceforge.net/DTD/sodipodi-0.dtd"
   xmlns:inkscape="http://www.inkscape.org/namespaces/inkscape"
   width="192"
   height="192"
   viewBox="0 0 50.799999 50.800001"
   version="1.1"
   id="svg8"
   inkscape:version="0.92.4 (f8dce91, 2019-08-02)"
   sodipodi:docname="rosette2.svg">
  <defs
     id="defs2" />
  <sodipodi:namedview
     id="base"
     pagecolor="#ffffff"
     bordercolor="#666666"
     borderopacity="1.0"
     inkscape:pageopacity="0.0"
     inkscape:pageshadow="2"
     inkscape:zoom="1.979899"
     inkscape:cx="50.1389"
     inkscape:cy="81.894074"
     inkscape:document-units="mm"
     inkscape:current-layer="layer1"
     showgrid="true"
     units="px"
     inkscape:pagecheckerboard="true"
     inkscape:window-width="1366"
     inkscape:window-height="713"
     inkscape:window-x="0"
     inkscape:window-y="27"
     inkscape:window-maximized="1">
    <inkscape:grid
       type="xygrid"
       id="grid10"
       spacingx="3.175"
       spacingy="3.175" />
  </sodipodi:namedview>
  <metadata
     id="metadata5">
    <rdf:RDF>
      <cc:Work
         rdf:about="">
        <dc:format>image/svg+xml</dc:format>
        <dc:type
           rdf:resource="http://purl.org/dc/dcmitype/StillImage" />
        <dc:title />
      </cc:Work>
    </rdf:RDF>
  </metadata>
  <g
     inkscape:label="Layer 1"
     inkscape:groupmode="layer"
     id="layer1"
     transform="translate(0,-246.19998)">
    <circle
       style="fill:#ce93d8;fill-opacity:1;stroke:#8f4caa;stroke-width:2.64583333;stroke-miterlimit:3.6;stroke-dasharray:none;stroke-opacity:1"
       id="path12-3"
       cx="25.4"
       cy="271.59998"
       r="0" />
    <path
       style="fill:#ce93d8;stroke:#8f4caa;stroke-width:10.00000013;stroke-linecap:butt;stroke-linejoin:miter;stroke-opacity:1;stroke-miterlimit:3.6;stroke-dasharray:none;fill-opacity:1"
       d="M 84 12 C 72 12 60 24 60 48 C 60 72 96 96 96 96 C 96 96 132 72 132 48 C 132 24 120 12 108 12 L 96 12 L 84 12 z "
       transform="matrix(0.26458333,0,0,0.26458333,0,246.19998)"
       id="path827" />
    <path
       inkscape:connector-curvature="0"
       style="fill:#ce93d8;stroke:#8f4caa;stroke-width:2.64583333;stroke-linecap:butt;stroke-linejoin:miter;stroke-miterlimit:3.6;stroke-dasharray:none;stroke-opacity:1;fill-opacity:1"
       d="m 43.191742,257.74198 c -1.5875,-2.74964 -5.924631,-3.91177 -11.423892,-0.73677 -5.499261,3.175 -6.236023,14.5989 -6.236023,14.5989 0,0 10.261762,5.07389 15.761023,1.89889 5.499261,-3.175 6.661392,-7.51213 5.073892,-10.26176 l -1.5875,-2.74963 z"
       id="path827-6" />
    <path
       inkscape:connector-curvature="0"
       style="fill:#ce93d8;stroke:#8f4caa;stroke-width:2.64583333;stroke-linecap:butt;stroke-linejoin:miter;stroke-miterlimit:3.6;stroke-dasharray:none;stroke-opacity:1;fill-opacity:1"
       d="m 46.323742,280.03738 c 1.5875,-2.74963 0.425369,-7.08676 -5.073892,-10.26176 -5.499262,-3.175 -15.761023,1.89889 -15.761023,1.89889 0,0 0.736761,11.42389 6.236023,14.59889 5.499261,3.175 9.836392,2.01287 11.423892,-0.73676 l 1.5875,-2.74963 z"
       id="path827-7" />
    <path
       inkscape:connector-curvature="0"
       style="fill:#ce93d8;stroke:#8f4caa;stroke-width:2.64583333;stroke-linecap:butt;stroke-linejoin:miter;stroke-miterlimit:3.6;stroke-dasharray:none;stroke-opacity:1;fill-opacity:1"
       d="m 28.607498,293.83448 c 3.175008,1e-5 6.350007,-3.17499 6.350007,-9.52499 0,-6.35 -9.525006,-12.70001 -9.525006,-12.70001 0,0 -9.524999,6.35 -9.524999,12.7 10e-7,6.35 3.174999,9.525 6.349999,9.525 h 3.174999 z"
       id="path827-6-5" />
    <path
       inkscape:connector-curvature="0"
       style="fill:#ce93d8;stroke:#8f4caa;stroke-width:2.64583333;stroke-linecap:butt;stroke-linejoin:miter;stroke-miterlimit:3.6;stroke-dasharray:none;stroke-opacity:1;fill-opacity:1"
       d="m 7.7956669,285.47764 c 1.5874981,2.74963 5.9246291,3.91176 11.4238901,0.73676 5.499261,-3.175 6.236024,-14.59889 6.236024,-14.59889 0,0 -10.261759,-5.07389 -15.761021,-1.89889 -5.499258,3.175 -6.6613884,7.51213 -5.0738903,10.26176 l 1.5874981,2.74963 z"
       id="path827-7-3" />
    <path
       inkscape:connector-curvature="0"
       style="fill:#ce93d8;stroke:#8f4caa;stroke-width:2.64583333;stroke-linecap:butt;stroke-linejoin:miter;stroke-opacity:1;stroke-miterlimit:3.6;stroke-dasharray:none;fill-opacity:1"
       d="m 4.6450003,263.21361 c -1.5875111,2.74963 -0.425381,7.08676 5.073877,10.26176 5.4992607,3.175 15.7610337,-1.89889 15.7610337,-1.89889 0,0 -0.736761,-11.42389 -6.236023,-14.59889 -5.499262,-3.175 -9.8363904,-2.01287 -11.4238895,0.73676 l -1.5874991,2.74963 z"
       id="path827-6-5-5" />
  </g>
</svg>
