<?xml version="1.0" encoding="UTF-8" standalone="no"?>
<!-- Created with Inkscape (http://www.inkscape.org/) -->

<svg
   xmlns:osb="http://www.openswatchbook.org/uri/2009/osb"
   xmlns:dc="http://purl.org/dc/elements/1.1/"
   xmlns:cc="http://creativecommons.org/ns#"
   xmlns:rdf="http://www.w3.org/1999/02/22-rdf-syntax-ns#"
   xmlns:svg="http://www.w3.org/2000/svg"
   xmlns="http://www.w3.org/2000/svg"
   xmlns:sodipodi="http://sodipodi.sourceforge.net/DTD/sodipodi-0.dtd"
   xmlns:inkscape="http://www.inkscape.org/namespaces/inkscape"
   width="192"
   height="192"
   viewBox="0 0 50.8 50.800001"
   version="1.1"
   id="svg826"
   inkscape:version="0.92.4 (f8dce91, 2019-08-02)"
   sodipodi:docname="rosette3.svg"
   inkscape:export-filename="/home/hfrgrd/Documents/Ur/public/assets/rosette3.png"
   inkscape:export-xdpi="96.585045"
   inkscape:export-ydpi="96.585045">
  <defs
     id="defs820">
    <linearGradient
       id="linearGradient6781"
       osb:paint="solid">
      <stop
         style="stop-color:#000000;stop-opacity:1;"
         offset="0"
         id="stop6779" />
    </linearGradient>
    <linearGradient
       id="linearGradient6767"
       osb:paint="solid">
      <stop
         style="stop-color:#ce93d8;stop-opacity:1;"
         offset="0"
         id="stop6765" />
    </linearGradient>
    <filter
       inkscape:collect="always"
       style="color-interpolation-filters:sRGB"
       id="filter1228"
       x="-0.039713894"
       width="1.0794278"
       y="-0.045338078"
       height="1.0906762">
      <feGaussianBlur
         inkscape:collect="always"
         stdDeviation="0.55834751"
         id="feGaussianBlur1230" />
    </filter>
    <filter
       inkscape:collect="always"
       style="color-interpolation-filters:sRGB"
       id="filter1232"
       x="-0.076950113"
       width="1.1539002"
       y="-0.076950113"
       height="1.1539002">
      <feGaussianBlur
         inkscape:collect="always"
         stdDeviation="0.55834751"
         id="feGaussianBlur1234" />
    </filter>
    <filter
       inkscape:collect="always"
       style="color-interpolation-filters:sRGB"
       id="filter1236"
       x="-0.076950113"
       width="1.1539002"
       y="-0.076950113"
       height="1.1539002">
      <feGaussianBlur
         inkscape:collect="always"
         stdDeviation="0.55834751"
         id="feGaussianBlur1238" />
    </filter>
    <filter
       inkscape:collect="always"
       style="color-interpolation-filters:sRGB"
       id="filter1240"
       x="-0.076950113"
       width="1.1539002"
       y="-0.076950113"
       height="1.1539002">
      <feGaussianBlur
         inkscape:collect="always"
         stdDeviation="0.55834751"
         id="feGaussianBlur1242" />
    </filter>
    <filter
       inkscape:collect="always"
       style="color-interpolation-filters:sRGB"
       id="filter1244"
       x="-0.076950113"
       width="1.1539002"
       y="-0.076950113"
       height="1.1539002">
      <feGaussianBlur
         inkscape:collect="always"
         stdDeviation="0.55834751"
         id="feGaussianBlur1246" />
    </filter>
    <filter
       inkscape:collect="always"
       style="color-interpolation-filters:sRGB"
       id="filter1248"
       x="-0.076950113"
       width="1.1539002"
       y="-0.076950113"
       height="1.1539002">
      <feGaussianBlur
         inkscape:collect="always"
         stdDeviation="0.55834751"
         id="feGaussianBlur1250" />
    </filter>
    <filter
       inkscape:collect="always"
       style="color-interpolation-filters:sRGB"
       id="filter1252"
       x="-0.076950113"
       width="1.1539002"
       y="-0.076950113"
       height="1.1539002">
      <feGaussianBlur
         inkscape:collect="always"
         stdDeviation="0.55834751"
         id="feGaussianBlur1254" />
    </filter>
    <filter
       inkscape:collect="always"
       style="color-interpolation-filters:sRGB"
       id="filter1232-6"
       x="-0.07695011"
       width="1.1539001"
       y="-0.07695011"
       height="1.1539001">
      <feGaussianBlur
         inkscape:collect="always"
         stdDeviation="0.55834751"
         id="feGaussianBlur1234-2" />
    </filter>
  </defs>
  <sodipodi:namedview
     id="base"
     pagecolor="#ffffff"
     bordercolor="#666666"
     borderopacity="1.0"
     inkscape:pageopacity="0.0"
     inkscape:pageshadow="2"
     inkscape:zoom="2.8"
     inkscape:cx="71.715895"
     inkscape:cy="97.780669"
     inkscape:document-units="mm"
     inkscape:current-layer="layer1"
     showgrid="true"
     inkscape:pagecheckerboard="true"
     units="px"
     inkscape:window-width="1366"
     inkscape:window-height="713"
     inkscape:window-x="0"
     inkscape:window-y="27"
     inkscape:window-maximized="1">
    <inkscape:grid
       type="xygrid"
       id="grid1371"
       spacingx="3.175"
       spacingy="3.175"
       visible="false" />
    <inkscape:grid
       type="xygrid"
       id="grid837"
       visible="false" />
    <inkscape:grid
       type="axonomgrid"
       id="grid839"
       units="px"
       empspacing="5"
       spacingy="1.0583333"
       gridanglex="30"
       gridanglez="30" />
  </sodipodi:namedview>
  <metadata
     id="metadata823">
    <rdf:RDF>
      <cc:Work
         rdf:about="">
        <dc:format>image/svg+xml</dc:format>
        <dc:type
           rdf:resource="http://purl.org/dc/dcmitype/StillImage" />
        <dc:title></dc:title>
      </cc:Work>
    </rdf:RDF>
  </metadata>
  <g
     inkscape:groupmode="layer"
     id="layer3"
     inkscape:label="Layer 2" />
  <g
     inkscape:label="Layer 1"
     inkscape:groupmode="layer"
     id="layer1"
     transform="translate(0,-246.19998)">
    <path
       style="color:#000000;font-style:normal;font-variant:normal;font-weight:normal;font-stretch:normal;font-size:medium;line-height:normal;font-family:sans-serif;font-variant-ligatures:normal;font-variant-position:normal;font-variant-caps:normal;font-variant-numeric:normal;font-variant-alternates:normal;font-feature-settings:normal;text-indent:0;text-align:start;text-decoration:none;text-decoration-line:none;text-decoration-style:solid;text-decoration-color:#000000;letter-spacing:normal;word-spacing:normal;text-transform:none;writing-mode:lr-tb;direction:ltr;text-orientation:mixed;dominant-baseline:auto;baseline-shift:baseline;text-anchor:start;white-space:normal;shape-padding:0;clip-rule:nonzero;display:inline;overflow:visible;visibility:visible;opacity:0.97000002;isolation:auto;mix-blend-mode:normal;color-interpolation:sRGB;color-interpolation-filters:linearRGB;solid-color:#000000;solid-opacity:1;vector-effect:none;fill:#ce93d8;fill-opacity:1;fill-rule:nonzero;stroke:#ce93d8;stroke-width:2.4000001;stroke-linecap:round;stroke-linejoin:round;stroke-miterlimit:4.80000019;stroke-dasharray:none;stroke-dashoffset:0;stroke-opacity:1;paint-order:stroke markers fill;filter:url(#filter1228);color-rendering:auto;image-rendering:auto;shape-rendering:auto;text-rendering:auto;enable-background:accumulate"
       d="m 19.237112,256.29391 c -0.36747,2.9e-4 -0.674792,0.001 -0.892578,0.002 -0.108892,4.5e-4 -0.194358,0.001 -0.257812,0.002 -0.03173,3.4e-4 -0.05675,-5.9e-4 -0.08203,0 -0.01264,3e-4 -0.02473,9.2e-4 -0.04688,0.002 -0.01107,5.2e-4 -0.02316,10e-4 -0.05469,0.004 -0.01576,0.001 -0.0778,0.01 -0.07813,0.01 -3.25e-4,5e-5 -0.41788,0.14643 -0.417969,0.14648 -8.8e-5,5e-5 -0.335731,0.28686 -0.335937,0.28711 -2.06e-4,2.6e-4 -0.03778,0.0515 -0.04687,0.0645 -0.01818,0.0259 -0.02526,0.0356 -0.03125,0.0449 -0.01197,0.0187 -0.01686,0.0283 -0.02344,0.0391 -0.01315,0.0216 -0.02681,0.043 -0.04297,0.0703 -0.03231,0.0546 -0.07602,0.12858 -0.130859,0.22266 -0.109668,0.18816 -0.26328,0.45534 -0.447265,0.77344 -0.367972,0.63618 -0.856138,1.48181 -1.34375,2.32812 -0.487614,0.84631 -0.973669,1.69177 -1.339845,2.32813 -0.366176,0.63635 -0.653729,1.13508 -0.615235,1.06835 0.04522,-0.0783 -0.24802,0.42859 -0.615235,1.0625 -0.368012,0.6353 -0.858539,1.48074 -1.347656,2.32618 -0.489118,0.84543 -0.97678,1.69135 -1.3437507,2.32812 -0.183486,0.31839 -0.3371953,0.58438 -0.4453128,0.77344 -0.054059,0.0945 -0.095811,0.16932 -0.1269531,0.22461 -0.015571,0.0276 -0.028887,0.0501 -0.041016,0.0723 -0.00606,0.0111 -0.011312,0.0213 -0.021484,0.041 -0.00509,0.01 -0.010099,0.0201 -0.023437,0.0488 -0.00667,0.0143 -0.031131,0.072 -0.03125,0.0723 -1.187e-4,3.1e-4 -0.082031,0.43545 -0.082031,0.43555 0,1e-4 0.081912,0.43329 0.082031,0.43359 1.187e-4,3.1e-4 0.024581,0.0599 0.03125,0.0742 0.013339,0.0287 0.018351,0.039 0.023437,0.0488 0.010173,0.0197 0.01542,0.0299 0.021484,0.041 0.012129,0.0222 0.025445,0.0427 0.041016,0.0703 0.031142,0.0553 0.072894,0.13008 0.1269531,0.22461 0.1081175,0.18905 0.2618268,0.45505 0.4453128,0.77344 0.3669707,0.63676 0.8546327,1.48268 1.3437507,2.32812 0.489117,0.84544 0.979644,1.69088 1.347656,2.32617 0.368013,0.6353 0.673128,1.1648 0.615235,1.06446 a 1.20012,1.20012 0 0 0 0.0019,0 c -0.04981,-0.0863 0.247106,0.43005 0.613282,1.0664 0.366176,0.63636 0.852231,1.48377 1.339845,2.33008 0.487612,0.84631 0.975779,1.69194 1.34375,2.32813 0.183985,0.31809 0.337598,0.58332 0.447265,0.77148 0.05483,0.0941 0.09855,0.16804 0.130859,0.22266 0.01616,0.0273 0.02982,0.0487 0.04297,0.0703 0.0066,0.0108 0.01147,0.0204 0.02344,0.0391 0.006,0.009 0.01308,0.021 0.03125,0.0469 0.0091,0.0129 0.04667,0.0622 0.04687,0.0625 2.06e-4,2.5e-4 0.335849,0.28901 0.335937,0.28906 8.9e-5,5e-5 0.417644,0.14643 0.417969,0.14648 3.25e-4,5e-5 0.06236,0.008 0.07813,0.01 0.03152,0.003 0.04361,0.003 0.05469,0.004 0.02215,0.001 0.03424,-3e-4 0.04688,0 0.02528,5.8e-4 0.0503,0.002 0.08203,0.002 0.06345,6.7e-4 0.148919,0.001 0.257812,0.002 0.217786,9e-4 0.525107,0.002 0.892578,0.002 0.734942,5.8e-4 1.71077,-10e-4 2.6875,-0.002 0.97673,-8.7e-4 1.953313,-8.9e-4 2.6875,-0.002 0.734188,-10e-4 1.327014,-0.002 1.230469,-0.002 -0.09654,0 0.496281,8.9e-4 1.230469,0.002 0.734188,0.001 1.71077,0.001 2.6875,0.002 0.97673,8.7e-4 1.954511,0.003 2.689453,0.002 0.367471,-2.8e-4 0.67284,-10e-4 0.890625,-0.002 0.108893,-4.5e-4 0.196311,-10e-4 0.259766,-0.002 0.03173,-3.4e-4 0.05675,-10e-4 0.08203,-0.002 0.01264,-3e-4 0.02277,0.001 0.04492,0 0.01107,-5.2e-4 0.02316,-10e-4 0.05469,-0.004 0.01576,-0.001 0.07975,-0.01 0.08008,-0.01 3.25e-4,-5e-5 0.415927,-0.14643 0.416016,-0.14648 8.9e-5,-5e-5 0.335732,-0.28881 0.335937,-0.28906 2.06e-4,-2.6e-4 0.03974,-0.0496 0.04883,-0.0625 0.01818,-0.0259 0.02331,-0.0376 0.0293,-0.0469 0.01197,-0.0187 0.01882,-0.0283 0.02539,-0.0391 0.01315,-0.0216 0.02486,-0.043 0.04102,-0.0703 0.03231,-0.0546 0.07603,-0.12858 0.130859,-0.22266 0.109668,-0.18816 0.26328,-0.45339 0.447266,-0.77148 0.367971,-0.63619 0.856137,-1.48182 1.34375,-2.32813 0.487612,-0.84631 0.975621,-1.69372 1.341797,-2.33008 0.366175,-0.63635 0.655718,-1.13994 0.613281,-1.0664 -0.04659,0.0807 0.249175,-0.42916 0.617187,-1.06446 0.368013,-0.63529 0.856586,-1.48073 1.345704,-2.32617 0.489117,-0.84544 0.978732,-1.69136 1.345703,-2.32812 0.183485,-0.31839 0.335242,-0.58439 0.443359,-0.77344 0.05406,-0.0945 0.09776,-0.16932 0.128906,-0.22461 0.01557,-0.0276 0.02693,-0.0481 0.03906,-0.0703 0.0061,-0.0111 0.01131,-0.0213 0.02148,-0.041 0.0051,-0.01 0.01205,-0.0201 0.02539,-0.0488 0.0067,-0.0143 0.03113,-0.0739 0.03125,-0.0742 1.18e-4,-3e-4 0.08008,-0.43349 0.08008,-0.43359 0,-10e-5 -0.07996,-0.43524 -0.08008,-0.43555 -1.19e-4,-3e-4 -0.02458,-0.0579 -0.03125,-0.0723 -0.01334,-0.0287 -0.02031,-0.039 -0.02539,-0.0488 -0.01017,-0.0197 -0.01542,-0.0299 -0.02148,-0.041 -0.01213,-0.0222 -0.02349,-0.0446 -0.03906,-0.0723 -0.03114,-0.0553 -0.07485,-0.13008 -0.128906,-0.22461 -0.108117,-0.18905 -0.259874,-0.45506 -0.443359,-0.77344 -0.36697,-0.63676 -0.856587,-1.48269 -1.345703,-2.32812 -0.489117,-0.84544 -0.977691,-1.69088 -1.345704,-2.32618 -0.368012,-0.63529 -0.671149,-1.15795 -0.617187,-1.06445 0.0499,0.0864 -0.247106,-0.43005 -0.613281,-1.0664 -0.366176,-0.63636 -0.854184,-1.48182 -1.341797,-2.32813 -0.487613,-0.84631 -0.97578,-1.69194 -1.34375,-2.32812 -0.183986,-0.3181 -0.337599,-0.58528 -0.447266,-0.77344 -0.05483,-0.0941 -0.09855,-0.16805 -0.130859,-0.22266 -0.01615,-0.0273 -0.02787,-0.0487 -0.04102,-0.0703 -0.0066,-0.0108 -0.01342,-0.0204 -0.02539,-0.0391 -0.006,-0.009 -0.01113,-0.019 -0.0293,-0.0449 -0.0091,-0.0129 -0.04862,-0.0642 -0.04883,-0.0645 -2.05e-4,-2.5e-4 -0.335848,-0.28706 -0.335937,-0.28711 -8.9e-5,-5e-5 -0.415691,-0.14643 -0.416016,-0.14648 -3.24e-4,-5e-5 -0.06431,-0.008 -0.08008,-0.01 -0.03155,-0.003 -0.04361,-0.003 -0.05469,-0.004 -0.02216,-0.001 -0.03228,-0.002 -0.04492,-0.002 -0.02529,-5.9e-4 -0.0503,3.4e-4 -0.08203,0 -0.06346,-6.7e-4 -0.150872,-10e-4 -0.259766,-0.002 -0.217787,-9e-4 -0.523154,-0.002 -0.890625,-0.002 -0.734943,-5.8e-4 -1.712723,-8.7e-4 -2.689453,0 -0.97673,8.7e-4 -1.953312,0.003 -2.6875,0.004 -0.734188,10e-4 -1.327014,0.002 -1.230469,0.002 0.09646,0 -0.49628,-9e-4 -1.230469,-0.002 -0.734188,-10e-4 -1.710769,-0.003 -2.6875,-0.004 -0.97673,-8.7e-4 -1.952558,-5.8e-4 -2.6875,0 z m -0.21875,1.84961 c 0.0014,-0.002 0.0036,-0.002 -0.0039,0.01 -0.0014,0.002 -0.0075,0.0103 -0.0098,0.0137 0.005,-0.008 0.01216,-0.0209 0.01367,-0.0234 z m 0.220703,0.55078 c 0.732267,-5.8e-4 1.707535,-8.7e-4 2.683594,0 0.97606,8.6e-4 1.951649,0.003 2.685547,0.004 0.733898,10e-4 1.124819,0.002 1.234375,0.002 0.10964,0 0.500478,-9e-4 1.234375,-0.002 0.733897,-0.001 1.709488,-0.003 2.685547,-0.004 0.976059,-8.7e-4 1.953282,-5.8e-4 2.685547,0 0.224378,1.7e-4 0.369645,0.002 0.541015,0.002 0.08573,0.14773 0.15972,0.27357 0.271485,0.4668 0.366632,0.63387 0.852565,1.47849 1.339844,2.32422 0.487278,0.84572 0.975766,1.69202 1.341797,2.32812 0.36603,0.6361 0.558781,0.97255 0.615234,1.07031 0.06051,0.10486 0.24932,0.43137 0.617187,1.06641 0.367868,0.63504 0.858875,1.48132 1.347657,2.32617 0.488781,0.84486 0.976162,1.68977 1.341796,2.32422 0.111855,0.19409 0.18427,0.3203 0.269532,0.46875 -0.08516,0.14827 -0.15789,0.27503 -0.269532,0.46875 -0.365634,0.63445 -0.853015,1.47936 -1.341796,2.32422 -0.488782,0.84486 -0.97979,1.68917 -1.347657,2.32422 -0.367866,0.63504 -0.564051,0.97633 -0.617187,1.06836 -0.04899,0.0849 -0.249204,0.43225 -0.615234,1.06836 -0.366031,0.6361 -0.85452,1.4824 -1.341797,2.32812 -0.487278,0.84573 -0.973213,1.6923 -1.339844,2.32617 -0.112182,0.19396 -0.187497,0.31872 -0.273438,0.4668 -0.17097,3.9e-4 -0.315493,0.002 -0.539062,0.002 -0.732266,5.8e-4 -1.709487,-0.001 -2.685547,-0.002 -0.97606,-8.7e-4 -1.951649,-8.9e-4 -2.685547,-0.002 -0.733898,-10e-4 -1.124742,-0.002 -1.234375,-0.002 -0.10964,0 -0.500478,9e-4 -1.234375,0.002 -0.733897,10e-4 -1.709487,10e-4 -2.685547,0.002 -0.976059,8.7e-4 -1.951327,0.003 -2.683594,0.002 -0.223883,-1.7e-4 -0.369889,-0.002 -0.541015,-0.002 -0.0859,-0.14801 -0.159382,-0.27298 -0.271485,-0.4668 -0.366631,-0.63387 -0.854518,-1.48044 -1.341796,-2.32617 -0.487279,-0.84572 -0.973813,-1.69202 -1.339844,-2.32812 -0.366031,-0.63611 -0.55888,-0.97077 -0.615234,-1.06836 -0.06444,-0.1117 -0.251274,-0.43332 -0.619141,-1.06836 -0.367868,-0.63505 -0.856923,-1.47936 -1.345704,-2.32422 -0.488782,-0.84486 -0.978116,-1.68977 -1.343751,-2.32422 -0.111764,-0.19393 -0.184315,-0.32038 -0.269532,-0.46875 0.08532,-0.14856 0.157554,-0.27444 0.269532,-0.46875 0.365635,-0.63445 0.854969,-1.47936 1.343751,-2.32422 0.488781,-0.84486 0.977836,-1.69113 1.345704,-2.32617 0.367867,-0.63504 0.565787,-0.97401 0.619141,-1.06641 0.04504,-0.0781 0.249204,-0.4342 0.615234,-1.07031 0.36603,-0.6361 0.852566,-1.4824 1.339844,-2.32812 0.487277,-0.84573 0.975165,-1.69035 1.341796,-2.32422 0.111889,-0.19345 0.185691,-0.31897 0.271485,-0.4668 0.171126,-3.9e-4 0.317132,-0.002 0.541015,-0.002 z"
       id="path858"
       inkscape:connector-curvature="0" />
    <circle
       style="opacity:0.97000002;fill:#ce93d8;fill-opacity:1;stroke:#ce93d8;stroke-width:2.4000001;stroke-linecap:round;stroke-linejoin:round;stroke-miterlimit:4.80000019;stroke-dasharray:none;stroke-opacity:1;paint-order:stroke markers fill;filter:url(#filter1232)"
       id="path863"
       cx="18.052383"
       cy="257.57706"
       r="8.7071609" />
    <circle
       style="opacity:0.97000002;fill:#ce93d8;fill-opacity:1;stroke:#ce93d8;stroke-width:2.4000001;stroke-linecap:round;stroke-linejoin:round;stroke-miterlimit:4.80000019;stroke-dasharray:none;stroke-opacity:1;paint-order:stroke markers fill;filter:url(#filter1236)"
       id="path863-6"
       cx="33.671623"
       cy="257.57706"
       r="8.7071609" />
    <circle
       style="opacity:0.97000002;fill:#ce93d8;fill-opacity:1;stroke:#ce93d8;stroke-width:2.4000001;stroke-linecap:round;stroke-linejoin:round;stroke-miterlimit:4.80000019;stroke-dasharray:none;stroke-opacity:1;paint-order:stroke markers fill;filter:url(#filter1240)"
       id="path863-7"
       cx="-228.15854"
       cy="164.71928"
       r="8.7071609"
       transform="rotate(-60,6.0474242,-2.0077797)" />
    <circle
       style="opacity:0.97000002;fill:#ce93d8;fill-opacity:1;stroke:#ce93d8;stroke-width:2.4000001;stroke-linecap:round;stroke-linejoin:round;stroke-miterlimit:4.80000019;stroke-dasharray:none;stroke-opacity:1;paint-order:stroke markers fill;filter:url(#filter1244)"
       id="path863-6-5"
       cx="-212.53931"
       cy="164.71928"
       r="8.7071609"
       transform="rotate(-60,6.0474242,-2.0077797)" />
    <circle
       style="opacity:0.97000002;fill:#ce93d8;fill-opacity:1;stroke:#ce93d8;stroke-width:2.4000001;stroke-linecap:round;stroke-linejoin:round;stroke-miterlimit:4.80000019;stroke-dasharray:none;stroke-opacity:1;paint-order:stroke markers fill;filter:url(#filter1248)"
       id="path863-7-3"
       cx="-249.45157"
       cy="-128.89684"
       r="8.7071609"
       transform="rotate(-120,3.6033082,0.74185121)" />
    <circle
       style="opacity:0.97000002;fill:#ce93d8;fill-opacity:1;stroke:#ce93d8;stroke-width:2.4000001;stroke-linecap:round;stroke-linejoin:round;stroke-miterlimit:4.80000019;stroke-dasharray:none;stroke-opacity:1;paint-order:stroke markers fill;filter:url(#filter1252)"
       id="path863-6-5-5"
       cx="-233.83234"
       cy="-128.89684"
       r="8.7071609"
       transform="rotate(-120,3.6033082,0.74185121)" />
    <circle
       style="opacity:0.97000002;fill:#8f4caa;fill-opacity:1;stroke:#8f4caa;stroke-width:2.4000001;stroke-linecap:round;stroke-linejoin:round;stroke-miterlimit:4.80000019;stroke-dasharray:none;stroke-opacity:1;paint-order:stroke markers fill;filter:url(#filter1232-6)"
       id="path863-9"
       cx="25.734116"
       cy="270.80634"
       r="8.7071609" />
  </g>
</svg>
