<?xml version="1.0" encoding="UTF-8" standalone="no"?>
<!-- Created with Inkscape (http://www.inkscape.org/) -->

<svg
   xmlns:dc="http://purl.org/dc/elements/1.1/"
   xmlns:cc="http://creativecommons.org/ns#"
   xmlns:rdf="http://www.w3.org/1999/02/22-rdf-syntax-ns#"
   xmlns:svg="http://www.w3.org/2000/svg"
   xmlns="http://www.w3.org/2000/svg"
   xmlns:sodipodi="http://sodipodi.sourceforge.net/DTD/sodipodi-0.dtd"
   xmlns:inkscape="http://www.inkscape.org/namespaces/inkscape"
   width="200"
   height="100"
   viewBox="0 0 52.916665 26.458334"
   version="1.1"
   id="svg8"
   inkscape:version="0.92.4 (f8dce91, 2019-08-02)"
   sodipodi:docname="dice.svg"
   inkscape:export-filename="/home/hfrgrd/Documents/Ur/assets/dice.png"
   inkscape:export-xdpi="96"
   inkscape:export-ydpi="96">
  <defs
     id="defs2" />
  <sodipodi:namedview
     id="base"
     pagecolor="#ffffff"
     bordercolor="#666666"
     borderopacity="1.0"
     inkscape:pageopacity="0.0"
     inkscape:pageshadow="2"
     inkscape:zoom="2.7153021"
     inkscape:cx="29.011622"
     inkscape:cy="63.707331"
     inkscape:document-units="mm"
     inkscape:current-layer="layer1"
     showgrid="true"
     inkscape:window-width="1366"
     inkscape:window-height="713"
     inkscape:window-x="0"
     inkscape:window-y="27"
     inkscape:window-maximized="1"
     inkscape:pagecheckerboard="true"
     units="px">
    <inkscape:grid
       type="xygrid"
       id="grid13"
       spacingx="2.6458333"
       spacingy="2.6458333" />
    <inkscape:grid
       type="axonomgrid"
       id="grid25"
       units="mm"
       empspacing="5"
       enabled="false" />
  </sodipodi:namedview>
  <metadata
     id="metadata5">
    <rdf:RDF>
      <cc:Work
         rdf:about="">
        <dc:format>image/svg+xml</dc:format>
        <dc:type
           rdf:resource="http://purl.org/dc/dcmitype/StillImage" />
        <dc:title />
      </cc:Work>
    </rdf:RDF>
  </metadata>
  <g
     inkscape:label="Layer 1"
     inkscape:groupmode="layer"
     id="layer1"
     transform="translate(0,-270.54164)">
    <path
       sodipodi:type="star"
       style="fill:#808080;stroke-width:0.09509318"
       id="path3730"
       sodipodi:sides="3"
       sodipodi:cx="13.567103"
       sodipodi:cy="280.32486"
       sodipodi:r1="14.411204"
       sodipodi:r2="7.1536155"
       sodipodi:arg1="-2.6221745"
       sodipodi:arg2="-1.5792183"
       inkscape:flatsided="false"
       inkscape:rounded="0"
       inkscape:randomized="0"
       d="m 1.0566196,273.1715 12.4502374,0 12.510483,-0.10436 -6.22512,10.78223 -6.164869,10.88657 -6.2251172,-10.78222 z"
       inkscape:transform-center-x="-0.0023012041"
       inkscape:transform-center-y="2.7439073" />
    <path
       style="fill:none;stroke:#000000;stroke-width:0.09509318px;stroke-linecap:butt;stroke-linejoin:miter;stroke-opacity:1"
       d="m 1.0566242,273.17131 c 12.5150818,7.15071 12.5150818,7.15071 12.5150818,7.15071"
       id="path3746"
       inkscape:connector-curvature="0" />
    <path
       style="fill:none;stroke:#000000;stroke-width:0.09509318px;stroke-linecap:butt;stroke-linejoin:miter;stroke-opacity:1"
       d="m 25.929166,273.18747 c 0,0 0,0 -12.36206,7.13192 0.0049,14.379 0.0049,14.379 0.0049,14.379"
       id="path3748"
       inkscape:connector-curvature="0" />
    <path
       sodipodi:type="star"
       style="fill:#808080;stroke-width:0.09509318"
       id="path3730-3"
       sodipodi:sides="3"
       sodipodi:cx="39.571929"
       sodipodi:cy="280.3519"
       sodipodi:r1="14.411204"
       sodipodi:r2="7.1536155"
       sodipodi:arg1="-2.6221745"
       sodipodi:arg2="-1.5792183"
       inkscape:flatsided="false"
       inkscape:rounded="0"
       inkscape:randomized="0"
       d="m 27.061446,273.19853 12.450237,10e-6 12.510483,-0.10436 -6.22512,10.78222 -6.164868,10.88658 -6.225118,-10.78223 z"
       inkscape:transform-center-x="-0.0022903999"
       inkscape:transform-center-y="2.7439329" />
    <path
       sodipodi:type="star"
       style="fill:#ffffff;stroke-width:0.09509318"
       id="path3732-6"
       sodipodi:sides="3"
       sodipodi:cx="39.571929"
       sodipodi:cy="280.34637"
       sodipodi:r1="4.7867889"
       sodipodi:r2="1.4424626"
       sodipodi:arg1="-2.6179938"
       sodipodi:arg2="-1.5707963"
       inkscape:flatsided="false"
       inkscape:rounded="0"
       inkscape:randomized="0"
       d="m 35.426449,277.95298 4.145481,0.95093 4.145481,-0.95093 -2.896272,3.11463 -1.249209,4.06555 -1.249209,-4.06555 z"
       inkscape:transform-center-x="8.7997079e-06"
       inkscape:transform-center-y="0.82349022" />
    <path
       style="fill:none;stroke:#000000;stroke-width:0.09509318px;stroke-linecap:butt;stroke-linejoin:miter;stroke-opacity:1"
       d="m 27.061509,273.19832 c 12.515083,7.15066 12.515083,7.15066 12.515083,7.15066"
       id="path3746-7"
       inkscape:connector-curvature="0" />
    <path
       style="fill:none;stroke:#000000;stroke-width:0.09509318px;stroke-linecap:butt;stroke-linejoin:miter;stroke-opacity:1"
       d="m 51.934106,273.21432 c 0,0 0,0 -12.362118,7.13197 0.0049,14.37887 0.0049,14.37887 0.0049,14.37887"
       id="path3748-5"
       inkscape:connector-curvature="0" />
    <path
       style="fill:none;stroke:#000000;stroke-width:0.09509318px;stroke-linecap:butt;stroke-linejoin:miter;stroke-opacity:1"
       d="m 29.14421,276.615 v -2.15643 l 1.901872,-1.23148 -3.993929,-0.0557 z"
       id="path4634"
       inkscape:connector-curvature="0" />
    <path
       style="fill:#ffffff;fill-opacity:1;stroke-width:0.01200731"
       d="m 28.160678,274.8954 c -0.507412,-0.83579 -0.920217,-1.52202 -0.917371,-1.52491 0.0032,-0.004 0.419303,0.23136 0.925443,0.5204 l 0.920212,0.52541 1.91e-4,0.99971 c 8.3e-5,0.54971 -0.0012,0.99945 -0.0032,0.99927 -0.002,-2.1e-4 -0.418171,-0.68419 -0.925584,-1.51988 z"
       id="path4638"
       inkscape:connector-curvature="0" />
    <path
       style="fill:#ffffff;fill-opacity:1;stroke-width:0.01200731"
       d="m 28.205524,273.79025 -0.995408,-0.56905 0.150073,0.007 c 0.08255,0.004 0.87415,0.0142 1.759079,0.0255 0.884949,0.0102 1.637794,0.0227 1.673001,0.0275 l 0.064,0.009 -0.574331,0.37169 c -0.315888,0.20441 -0.688344,0.44545 -0.827679,0.53578 l -0.253378,0.1641 z"
       id="path4636"
       inkscape:connector-curvature="0" />
    <path
       style="fill:none;stroke:#000000;stroke-width:0.09509318px;stroke-linecap:butt;stroke-linejoin:miter;stroke-opacity:1"
       d="m 3.2150442,276.615 v -2.15643 l 1.9018722,-1.23148 -3.9939292,-0.0557 z"
       id="path4634-3"
       inkscape:connector-curvature="0" />
    <path
       style="fill:#ffffff;fill-opacity:1;stroke-width:0.01200731"
       d="m 2.2315122,274.8954 c -0.5074119,-0.83579 -0.920217,-1.52202 -0.917371,-1.52491 0.0032,-0.004 0.4193031,0.23136 0.925443,0.5204 l 0.9202121,0.52541 1.909e-4,0.99971 c 8.3e-5,0.54971 -0.0012,0.99945 -0.0032,0.99927 -0.002,-2.1e-4 -0.4181711,-0.68419 -0.9255841,-1.51988 z"
       id="path4638-6"
       inkscape:connector-curvature="0" />
    <path
       style="fill:#ffffff;fill-opacity:1;stroke-width:0.01200731"
       d="m 2.2763582,273.79025 -0.995408,-0.56905 0.1500731,0.007 c 0.08255,0.004 0.8741499,0.0142 1.7590789,0.0255 0.8849491,0.0102 1.6377939,0.0227 1.673001,0.0275 l 0.064,0.009 -0.5743311,0.37169 c -0.3158879,0.20441 -0.688344,0.44545 -0.827679,0.53578 l -0.253378,0.1641 z"
       id="path4636-7"
       inkscape:connector-curvature="0" />
    <path
       style="fill:none;stroke:#000000;stroke-width:0.09509318px;stroke-linecap:butt;stroke-linejoin:miter;stroke-opacity:1"
       d="m 23.963396,276.51514 v -2.15643 l -1.901872,-1.23148 3.99393,-0.0557 z"
       id="path4634-3-5"
       inkscape:connector-curvature="0" />
    <path
       style="fill:#ffffff;fill-opacity:1;stroke-width:0.01200731"
       d="m 24.946591,274.79509 c 0.507412,-0.83579 0.920218,-1.52202 0.917372,-1.52491 -0.0032,-0.004 -0.419304,0.23136 -0.925444,0.5204 l -0.920212,0.52541 -1.91e-4,0.99971 c -8.3e-5,0.54971 0.0012,0.99945 0.0032,0.99927 0.002,-2.1e-4 0.418171,-0.68419 0.925584,-1.51988 z"
       id="path4638-6-3"
       inkscape:connector-curvature="0" />
    <path
       style="fill:#ffffff;fill-opacity:1;stroke-width:0.01200731"
       d="m 24.901745,273.68994 0.995409,-0.56905 -0.150074,0.007 c -0.08255,0.004 -0.87415,0.0142 -1.759079,0.0255 -0.884949,0.0102 -1.637794,0.0227 -1.673001,0.0275 l -0.064,0.009 0.574331,0.37169 c 0.315888,0.20441 0.688344,0.44545 0.827679,0.53578 l 0.253378,0.1641 z"
       id="path4636-7-5"
       inkscape:connector-curvature="0" />
  </g>
</svg>
