<?xml version="1.0" encoding="UTF-8" standalone="no"?>
<!-- Created with Inkscape (http://www.inkscape.org/) -->

<svg
   xmlns:dc="http://purl.org/dc/elements/1.1/"
   xmlns:cc="http://creativecommons.org/ns#"
   xmlns:rdf="http://www.w3.org/1999/02/22-rdf-syntax-ns#"
   xmlns:svg="http://www.w3.org/2000/svg"
   xmlns="http://www.w3.org/2000/svg"
   xmlns:sodipodi="http://sodipodi.sourceforge.net/DTD/sodipodi-0.dtd"
   xmlns:inkscape="http://www.inkscape.org/namespaces/inkscape"
   width="192"
   height="192"
   viewBox="0 0 50.799999 50.800001"
   version="1.1"
   id="svg8"
   inkscape:version="0.92.4 (f8dce91, 2019-08-02)"
   sodipodi:docname="rosette.svg">
  <defs
     id="defs2" />
  <sodipodi:namedview
     id="base"
     pagecolor="#ffffff"
     bordercolor="#666666"
     borderopacity="1.0"
     inkscape:pageopacity="0.0"
     inkscape:pageshadow="2"
     inkscape:zoom="1.4"
     inkscape:cx="-5.9051559"
     inkscape:cy="55.855916"
     inkscape:document-units="mm"
     inkscape:current-layer="layer1"
     showgrid="true"
     units="px"
     inkscape:pagecheckerboard="true"
     inkscape:window-width="1366"
     inkscape:window-height="713"
     inkscape:window-x="0"
     inkscape:window-y="27"
     inkscape:window-maximized="1">
    <inkscape:grid
       type="xygrid"
       id="grid10"
       spacingx="3.175"
       spacingy="3.175" />
  </sodipodi:namedview>
  <metadata
     id="metadata5">
    <rdf:RDF>
      <cc:Work
         rdf:about="">
        <dc:format>image/svg+xml</dc:format>
        <dc:type
           rdf:resource="http://purl.org/dc/dcmitype/StillImage" />
        <dc:title></dc:title>
      </cc:Work>
    </rdf:RDF>
  </metadata>
  <g
     inkscape:label="Layer 1"
     inkscape:groupmode="layer"
     id="layer1"
     transform="translate(0,-246.19998)">
    <circle
       style="fill:#ffffff;fill-opacity:1;stroke:#000000;stroke-width:0.5291667;stroke-miterlimit:4;stroke-dasharray:none;stroke-opacity:1"
       id="path12-3"
       cx="25.4"
       cy="271.59998"
       r="0" />
    <path
       style="fill:#ffffff;fill-opacity:0;stroke:#000000;stroke-width:10.00000013;stroke-miterlimit:4;stroke-dasharray:none;stroke-opacity:1"
       d="M 96.265625 11.751953 A 84.497012 84.497038 60 0 0 96.021484 95.800781 A 84.497038 84.497008 30 0 0 95.964844 95.894531 A 84.497008 84.497038 0 0 0 23.242188 53.744141 A 84.497008 84.497038 0 0 0 96.021484 95.982422 A 84.497008 84.497038 0 0 0 95.974609 95.910156 A 84.497038 84.497008 30 0 0 168.92383 54.001953 A 84.497038 84.497008 30 0 0 96.660156 94.757812 A 84.497012 84.497038 60 0 0 96.265625 11.751953 z M 95.900391 95.994141 A 84.497038 84.497012 30 0 0 22.931641 137.9043 A 84.497038 84.497012 30 0 0 95.900391 95.994141 z M 96 96 A 84.497012 84.497038 0 0 0 168.7793 138.23828 A 84.497012 84.497038 0 0 0 96 96 z M 96 96 A 84.497008 84.497038 60 0 0 95.810547 180.14844 A 84.497008 84.497038 60 0 0 96 96 z "
       transform="matrix(0.26458333,0,0,0.26458333,0,246.19998)"
       id="path12-1"
       inkscape:export-xdpi="96"
       inkscape:export-ydpi="96" />
  </g>
</svg>
